:version 1.10
:name ASF
:units
  mass 1
  length 1
  angle deg
:documentation
  ASF file generated by Kaydara
:root
  axis xyz
  order  tx ty tz rx ry rz
  position 0 0 0
  orientation 0 0 0
:bonedata
  begin
    id 1
    name RightUpLegDummy
    direction -0.718183 -0.695806 0.00816078
    length 4.904
    axis 0 0 0 xyz
  end
  begin
    id 2
    name RightUpLeg
    direction -0.0736652 -0.994202 0.0783343
    length 17.4976
    axis -2.72909 -3.00389 -4.00133 xyz
    dof rx ry rz
  end
  begin
    id 3
    name RightLeg
    direction -0.0389037 -0.994596 -0.0962598
    length 16.5821
    axis 3.95836 -18.5909 -4.46993 xyz
    dof rx ry rz
  end
  begin
    id 4
    name RightFoot
    direction -0.311643 -0.412678 0.855906
    length 3.77069
    axis -1.99483 -18.8351 -3.27644 xyz
    dof rx ry rz
  end
  begin
    id 5
    name RightToes
    direction -0.317852 0.0389852 0.947339
    length 3.85082
    axis -2.00228 -18.1713 -3.25211 xyz
    dof rx ry rz
  end
  begin
    id 6
    name SpineDummy
    direction 8.3039e-015 1 4.44677e-016
    length 4.6813
    axis 0 0 0 xyz
  end
  begin
    id 7
    name Spine
    direction -0.000262373 0.999988 0.00493267
    length 10.1015
    axis -0.00246081 0.00062579 0.0150362 xyz
    dof rx ry rz
  end
  begin
    id 8
    name Spine1
    direction 0 0 0
    length 0
    axis -0.00349562 0.000650293 0.0196666 xyz
    dof rx ry rz
  end
  begin
    id 9
    name HEadDummy
    direction -0.000343232 0.999999 0.00123745
    length 3.43865
    axis -0.00349562 0.000650293 0.0196666 xyz
  end
  begin
    id 10
    name HEad
    direction -0.0461221 0.980933 0.188796
    length 5.12695
    axis -0.00351404 -7.04812 0.0199272 xyz
    dof rx ry rz
  end
  begin
    id 11
    name LeftShoulder1Dummy
    direction 0.998904 -0.0399089 -0.0244534
    length 3.5433
    axis -0.00349562 0.000650293 0.0196666 xyz
  end
  begin
    id 12
    name LeftShoulder1
    direction 0.99951 1.64443e-005 0.0312999
    length 4.05031
    axis -0.00349562 0.000650293 0.0196666 xyz
    dof rx ry rz
  end
  begin
    id 13
    name LeftArm
    direction 0.984791 0.0515299 0.165927
    length 12.9126
    axis -64.823 -10.7743 5.20463 xyz
    dof rx ry rz
  end
  begin
    id 14
    name LeftForeArm
    direction 0.984968 0.0534808 0.16425
    length 10.8596
    axis -30.0462 -7.70601 1.87451 xyz
    dof rx ry rz
  end
  begin
    id 15
    name LeftHand
    direction 0.975871 0.0289682 0.216418
    length 6.62295
    axis -20.1348 -6.98077 1.86072 xyz
    dof rx ry rz
  end
  begin
    id 16
    name RightShoulderDummy
    direction -0.998877 -0.0405946 -0.0244307
    length 3.5433
    axis -0.00349562 0.000650293 0.0196666 xyz
  end
  begin
    id 17
    name RightShoulder
    direction -0.998933 -0.0249743 -0.0388558
    length 4.05031
    axis -0.0205316 -4.02113 1.41395 xyz
    dof rx ry rz
  end
  begin
    id 18
    name RightArm
    direction -0.997559 0.068664 0.0127103
    length 12.9638
    axis -67.3882 1.84188 -6.15987 xyz
    dof rx ry rz
  end
  begin
    id 19
    name RightForeArm
    direction -0.991508 0.0912848 0.0926241
    length 10.8312
    axis -22.1975 3.41087 -4.28711 xyz
    dof rx ry rz
  end
  begin
    id 20
    name RightHand
    direction -0.989262 0.0600788 0.133232
    length 6.57864
    axis -12.2911 2.17515 -4.39675 xyz
    dof rx ry rz
  end
  begin
    id 21
    name LeftUpLegDummy
    direction 0.718183 -0.695806 0.00816078
    length 4.904
    axis 0 0 0 xyz
  end
  begin
    id 22
    name LeftUpLeg
    direction 0.0831398 -0.99469 0.0606531
    length 17.4976
    axis -1.71016 2.29552 4.63832 xyz
    dof rx ry rz
  end
  begin
    id 23
    name LeftLeg
    direction 0.0498442 -0.991778 -0.117862
    length 16.5821
    axis 5.13757 15.5727 5.13348 xyz
    dof rx ry rz
  end
  begin
    id 24
    name LeftFoot
    direction 0.269026 -0.433896 0.85986
    length 3.77069
    axis -0.576502 15.6961 4.10267 xyz
    dof rx ry rz
  end
  begin
    id 25
    name LeftToes
    direction 0.277311 0.0251143 0.960452
    length 3.85048
    axis -0.576502 15.6961 4.10267 xyz
    dof rx ry rz
  end
:hierarchy
  begin
    root RightUpLegDummy SpineDummy LeftUpLegDummy
    RightUpLegDummy RightUpLeg
    RightUpLeg RightLeg
    RightLeg RightFoot
    RightFoot RightToes
    SpineDummy Spine
    Spine Spine1
    Spine1 HEadDummy LeftShoulder1Dummy RightShoulderDummy
    HEadDummy HEad
    LeftShoulder1Dummy LeftShoulder1
    LeftShoulder1 LeftArm
    LeftArm LeftForeArm
    LeftForeArm LeftHand
    RightShoulderDummy RightShoulder
    RightShoulder RightArm
    RightArm RightForeArm
    RightForeArm RightHand
    LeftUpLegDummy LeftUpLeg
    LeftUpLeg LeftLeg
    LeftLeg LeftFoot
    LeftFoot LeftToes
  end

:SAMPLES-PER-SECOND 30
:FULLY-SPECIFIED
:DEGREES
16
root  -5.07298 40.2704 82.364 177.383 10.7903 179.453
RightUpLeg  -3.78787 -2.21268 -1.36172
RightLeg  9.36893 2.03497 -1.83989
RightFoot  -3.18294 -0.230863 2.66149
RightToes  -1.16415e-010 -3.18055e-015 -2.98177e-016
Spine  4.31716 0.849075 2.07814
Spine1  7.74122 1.72745 -2.43975
HEad  -9.83682 1.22318 -0.116988
LeftShoulder1  -3.88251e-019 9.70628e-020 -3.87848e-018
LeftArm  -23.1595 53.4554 -55.6011
LeftForeArm  -3.19211 -15.2307 1.55421
LeftHand  -1.23095 -3.00263 17.9761
RightShoulder  6.95079 10.2064 33.2804
RightArm  0.862392 -35.8026 16.5649
RightForeArm  10.1162 13.5728 -7.98927
RightHand  -1.94753 2.67842 -27.25
LeftUpLeg  -1.18902 -2.31226 -2.97372
LeftLeg  8.66992 9.32554 4.98223
LeftFoot  -4.59103 0.191428 -2.7415
LeftToes  1.69338e-011 3.79281e-011 -2.20049e-011
17
root  -5.0425 40.1968 82.4415 177.606 11.009 179.474
RightUpLeg  -4.82026 -2.59397 -1.28807
RightLeg  10.6781 2.66278 -1.97875
RightFoot  -3.80605 -0.220283 2.73747
RightToes  -1.16415e-010 -3.18055e-015 -2.98177e-016
Spine  5.6328 0.825648 2.30805
Spine1  6.72421 1.74314 -2.52059
HEad  -10.2781 1.41861 -0.109745
LeftShoulder1  -3.88251e-019 9.70628e-020 -3.87848e-018
LeftArm  -22.7271 53.7492 -55.3728
LeftForeArm  -2.88044 -17.5444 2.04186
LeftHand  -1.19254 -3.2904 16.8429
RightShoulder  6.89777 10.1699 33.0828
RightArm  1.05705 -36.131 16.7128
RightForeArm  10.1727 13.943 -8.0861
RightHand  -2.09619 2.83457 -28.7024
LeftUpLeg  -2.24832 -1.68859 -2.76493
LeftLeg  10.1469 8.78731 5.39024
LeftFoot  -5.21535 0.191529 -2.98464
LeftToes  1.69338e-011 3.79281e-011 -2.20049e-011
18
root  -5.00403 40.0822 82.5512 177.858 11.2258 179.514
RightUpLeg  -6.21092 -3.45088 -1.1756
RightLeg  12.5583 3.7513 -2.11784
RightFoot  -4.70123 -0.196579 2.75204
RightToes  -1.16415e-010 -3.18055e-015 -2.98177e-016
Spine  7.11633 0.807564 2.75679
Spine1  5.83005 1.85519 -2.90488
HEad  -11.225 1.35441 0.033202
LeftShoulder1  -3.88251e-019 9.70628e-020 -3.87848e-018
LeftArm  -21.8655 53.5102 -55.1839
LeftForeArm  -2.83172 -19.9787 2.63938
LeftHand  -1.26299 -3.64226 17.0952
RightShoulder  6.88272 10.156 33.034
RightArm  1.1773 -36.4462 16.9314
RightForeArm  10.0802 14.373 -8.24596
RightHand  -2.39757 3.26304 -31.1096
LeftUpLeg  -3.68035 -0.458545 -2.51717
LeftLeg  12.1642 7.5729 5.95509
LeftFoot  -6.10169 0.181629 -3.24258
LeftToes  1.69338e-011 3.79281e-011 -2.20049e-011
19
root  -4.95656 39.9032 82.6926 178.212 11.4437 179.56
RightUpLeg  -8.18814 -5.46175 -0.959967
RightLeg  15.2943 5.97076 -2.18691
RightFoot  -6.01976 -0.156011 2.68819
RightToes  -1.16415e-010 -3.18055e-015 -2.98177e-016
Spine  8.69253 0.779141 3.29213
Spine1  5.0213 1.98965 -3.3794
HEad  -12.5689 1.14296 0.204442
LeftShoulder1  -3.88251e-019 9.70628e-020 -3.87848e-018
LeftArm  -20.6575 52.8888 -55.0947
LeftForeArm  -3.58549 -22.6603 3.4743
LeftHand  -1.44316 -4.1284 18.4621
RightShoulder  6.90814 10.1788 33.1178
RightArm  1.43585 -36.6819 17.1111
RightForeArm  9.18929 15.1084 -8.49194
RightHand  -2.72539 3.66607 -33.67
LeftUpLeg  -5.64639 1.79715 -2.23531
LeftLeg  14.8664 5.28644 6.5478
LeftFoot  -7.4014 0.159817 -3.62136
LeftToes  1.69338e-011 3.79281e-011 -2.20049e-011
20
root  -4.9008 39.6282 82.8584 178.845 11.4468 179.735
RightUpLeg  -10.9445 -8.96964 -0.291936
RightLeg  18.9535 9.46374 -2.2179
RightFoot  -7.77255 -0.0993353 2.49412
RightToes  -1.16415e-010 -3.18055e-015 -2.98177e-016
Spine  10.3586 0.665776 3.8523
Spine1  4.03685 1.9755 -3.572
HEad  -13.91 0.971523 0.380466
LeftShoulder1  -3.88251e-019 9.70628e-020 -3.87848e-018
LeftArm  -19.375 52.1093 -55.1316
LeftForeArm  -4.89895 -25.7064 4.64834
LeftHand  -1.6211 -4.82918 19.2541
RightShoulder  6.89732 10.1765 33.066
RightArm  1.86212 -37.0065 17.3232
RightForeArm  7.92835 16.1674 -8.89349
RightHand  -3.03515 4.11093 -35.6262
LeftUpLeg  -8.5041 4.50999 -1.79827
LeftLeg  18.6525 2.27298 6.97979
LeftFoot  -9.23112 0.111985 -4.06377
LeftToes  1.69338e-011 3.79281e-011 -2.20049e-011
21
root  -4.84302 39.2288 83.0347 179.838 11.0875 -179.786
RightUpLeg  -14.454 -12.5712 1.00066
RightLeg  23.4353 12.7084 -2.26259
RightFoot  -9.86374 -0.0370962 2.19418
RightToes  -1.16415e-010 -3.18055e-015 -2.98177e-016
Spine  11.8466 0.380239 4.65615
Spine1  3.13222 1.73241 -3.48032
HEad  -15.2299 0.972013 0.675211
LeftShoulder1  -3.88251e-019 9.70628e-020 -3.87848e-018
LeftArm  -18.9695 51.0419 -55.3643
LeftForeArm  -5.38341 -28.8804 5.87023
LeftHand  -1.70509 -5.65027 18.7059
RightShoulder  6.81125 10.1181 32.7409
RightArm  2.10181 -37.3029 17.9355
RightForeArm  7.40611 17.1655 -9.38299
RightHand  -3.34956 4.66868 -37.0507
LeftUpLeg  -12.365 6.88245 -1.09863
LeftLeg  23.6635 -0.799498 7.14646
LeftFoot  -11.5243 0.0285467 -4.33055
LeftToes  1.69338e-011 3.79281e-011 -2.20049e-011
